<?xml version="1.0" encoding="UTF-8"?>
<svg width="240px" height="59px" viewBox="0 0 240 59" version="1.1" xmlns="http://www.w3.org/2000/svg" xmlns:xlink="http://www.w3.org/1999/xlink">
    <!-- Generator: Sketch 63.1 (92452) - https://sketch.com -->
    <title>Group 2</title>
    <desc>Created with Sketch.</desc>
    <g id="Logo" stroke="none" stroke-width="1" fill="none" fill-rule="evenodd">
        <g id="Logo-Full-new" transform="translate(-1.000000, -3.000000)">
            <g id="Group-2" transform="translate(0.000000, 2.000000)">
                <g id="iso">
                    <path d="M40.78434,6.19615128 C37.6639279,4.90223435 34.2423453,4.18808935 30.6539652,4.18808935 C27.065585,4.18808935 23.6440024,4.90223435 20.5235904,6.19615128 C17.2887496,7.53751746 14.377573,9.50195686 11.9397649,11.9397649 C9.50195686,14.377573 7.53751746,17.2887496 6.19615128,20.5235904 C4.90223435,23.6440024 4.18808935,27.065585 4.18808935,30.6539652 M20.4530896,55.0412783 C23.5735017,56.3351952 26.9950843,57.0493402 30.5834644,57.0493402 C34.1718446,57.0493402 37.5934272,56.3351952 40.7138392,55.0412783 C43.94868,53.6999121 46.8598566,51.7354727 49.2976647,49.2976647 C51.7354727,46.8598566 53.6999121,43.94868 55.0412783,40.7138392 C56.3351952,37.5934272 57.0493402,34.1718446 57.0493402,30.5834644" id="circle" stroke="#67BBFF" stroke-width="4.61894444" stroke-linecap="round" transform="translate(30.618715, 30.618715) rotate(-10.000000) translate(-30.618715, -30.618715) "></path>
                    <g id="rocket" transform="translate(7.780602, 5.214521)" fill="#373736" fill-rule="nonzero">
                        <path d="M46.5047892,0.0114419479 C46.4053772,-0.00381398263 46.3043577,-0.00381398263 46.2049456,0.0114419479 C37.0237965,1.84426215 28.5764913,6.32764525 21.9009218,12.9107653 L13.1764004,13.3572804 C12.9307142,13.3684432 12.6978871,13.4710177 12.5235451,13.6450345 L3.56162177,22.6348706 C3.17374162,23.020734 3.17114504,23.6490799 3.55581037,24.0381682 C3.7430117,24.2274409 3.99809514,24.3332402 4.26393585,24.3316278 L4.33317809,24.3316278 L14.4326524,23.6370488 C14.0369825,24.4705436 13.6610961,25.3238834 13.3148849,26.2169135 C13.1713309,26.5828078 13.2566472,26.999183 13.5325033,27.278627 L20.1797577,33.946585 C20.4583341,34.2233002 20.8734165,34.3088823 21.2381747,34.1648812 C22.1581072,33.8076692 23.028581,33.4107669 23.8891631,33.0039421 L23.1967407,43.2440203 C23.1653344,43.7911253 23.5820243,44.2602141 24.1274305,44.2917183 C24.4063778,44.3078424 24.6792664,44.2047719 24.8783378,44.0080572 L33.8402612,35.0182211 C34.0137377,34.843336 34.1159936,34.6097838 34.1271218,34.3633323 L34.5821422,25.4330315 C41.0894284,18.7469649 45.5193239,10.3079547 47.3326049,1.14261338 C47.4154483,0.600965832 47.044755,0.094543358 46.5047892,0.0114419479 Z M6.83579023,22.1288202 L13.6610961,15.2822563 L20.0017063,14.9548119 C18.273618,16.9860833 16.7586968,19.1906272 15.4811776,21.5334669 L6.83579023,22.1288202 Z M32.1784476,33.8572819 L25.3531417,40.7038459 L25.9466466,31.9124609 C28.2830774,30.6247611 30.4809,29.0985479 32.5048752,27.3580075 L32.1784476,33.8572819 Z M21.1194738,32.0513767 L15.3921519,26.3062165 C22.6032359,8.63414349 40.0127117,3.42480136 45.0673947,2.26386226 C43.9298437,7.35413371 38.7663515,24.8079105 21.1194738,32.0513767 Z" id="Shape"></path>
                        <path d="M10.9850474,27.6407317 C10.598019,27.2494986 9.96610044,27.2450401 9.57360519,27.6308239 L0.349531895,36.7856044 C-0.068433926,37.1404264 -0.118629583,37.7657306 0.237212899,38.1823524 C0.437747036,38.4170427 0.736436047,38.5453483 1.04531329,38.5293721 C1.30946172,38.5308582 1.56342193,38.4274459 1.75103441,38.2420467 L10.9751077,29.0476352 C11.367603,28.6619752 11.3720758,28.0319648 10.9850474,27.6407317 Z" id="Path"></path>
                        <path d="M11.2344184,36.2277566 C11.2323077,36.2255201 11.230197,36.2231594 11.2279622,36.220923 C10.8405881,35.8355058 10.21483,35.8355058 9.82745588,36.220923 L0.600006649,45.4947891 C0.127956568,45.7744712 -0.0279863306,46.3841558 0.251494135,46.8565465 C0.530974601,47.3289372 1.14021967,47.4849926 1.61226975,47.2053105 C1.75592097,47.1202006 1.87573379,47.0003014 1.96078226,46.8565465 L11.1782988,37.6323795 C11.581441,37.2598842 11.606521,36.6310654 11.2344184,36.2277566 Z" id="Path"></path>
                        <path d="M23.6340847,23.9114901 C23.631974,23.9092536 23.6298633,23.9068929 23.6276285,23.9046564 C23.2402544,23.5192393 22.6144963,23.5192393 22.2271222,23.9046564 L12.999673,33.1785226 C12.5276229,33.4582047 12.37168,34.0678893 12.6511605,34.54028 C12.9306409,35.0126706 13.539886,35.168726 14.0119361,34.8890439 C14.1555873,34.8039341 14.2754001,34.6840348 14.3604486,34.54028 L23.5779651,25.316113 C23.9811073,24.9436177 24.0061873,24.3147989 23.6340847,23.9114901 Z" id="Path-Copy"></path>
                        <path d="M19.4962711,36.3963173 C19.1286514,36.0783565 18.586489,36.0783565 18.2188692,36.3963173 L18.2483279,36.3963173 L9.13577673,45.5992073 C8.72384622,45.9554721 8.67585312,46.5814769 9.02862079,46.9974912 C9.38138846,47.4135054 10.0012482,47.4619743 10.4131787,47.1057094 C10.4515977,47.0724878 10.4874391,47.0362911 10.5203346,46.9974912 L19.6034271,37.7946012 C19.956072,37.3787109 19.9080789,36.7525822 19.4962711,36.3963173 Z" id="Path"></path>
                        <path d="M34.2673023,8.58748868 C31.8393423,8.58798502 29.8714285,10.5613313 29.8719235,12.9950754 C29.8721711,14.163749 30.3354353,15.2844102 31.1599788,16.1106699 C31.9827896,16.939783 33.1022726,17.404399 34.269035,17.4009446 C36.696995,17.400429 38.6649088,15.4270827 38.6644138,12.9933386 C38.6639186,10.5595944 36.6952623,8.58699252 34.2673023,8.58748868 Z M35.9819863,14.7509393 C35.020679,15.6902203 33.4876866,15.6902203 32.5263793,14.7509393 C31.5833897,13.805331 31.5833897,12.2724084 32.5263793,11.3268001 L32.5263793,11.2870999 C33.4806318,10.3305741 35.0277338,10.3305741 35.9819863,11.2870999 C36.9362389,12.2436258 36.9362389,13.7944134 35.9819863,14.7509393 Z" id="Shape"></path>
                    </g>
                </g>
                <path d="M75.3773123,54.079996 C76.7078722,54.079996 77.9174722,53.6415161 78.8700321,52.9006361 C79.2329121,52.6133561 79.2933921,52.0690361 79.0212321,51.6910361 C78.7188321,51.3281562 78.1593922,51.2676762 77.8116322,51.5247162 C77.1312322,52.0690361 76.3147522,52.3563161 75.3773123,52.3563161 C74.3340323,52.3563161 73.3663524,51.9329561 72.6557124,51.2676762 C71.9753124,50.6023962 71.5519525,49.6649562 71.5519525,48.6367963 C71.5519525,47.6086363 71.9753124,46.7014364 72.6557124,46.0059164 C73.3663524,45.3406364 74.3340323,44.9172765 75.3773123,44.9172765 C76.3147522,44.9172765 77.1463522,45.2045564 77.8116322,45.7488764 C78.1593922,46.0210364 78.7188321,45.9605564 79.0212321,45.5825564 C79.2933921,45.2045564 79.2329121,44.6753565 78.8700321,44.3729565 C77.9174722,43.6320765 76.7078722,43.1935965 75.3773123,43.1935965 C72.3533124,43.2087165 69.8433925,45.6430364 69.8282725,48.6367963 C69.8433925,51.6456761 72.3533124,54.079996 75.3773123,54.079996 Z M96.4646715,54.079996 C97.8557114,54.079996 99.1862714,53.4449561 100.078351,52.4621561 C101.015791,51.4793562 101.605471,50.1336762 101.605471,48.6367963 C101.605471,47.1399164 101.015791,45.8093564 100.078351,44.8114365 C99.1862714,43.8135165 97.8557114,43.1935965 96.4646715,43.1935965 C95.0131515,43.1935965 93.6825916,43.8135165 92.7602716,44.8114365 C91.8228317,45.8093564 91.2633917,47.1399164 91.2633917,48.6367963 C91.2633917,50.1336762 91.8228317,51.4793562 92.7602716,52.4621561 C93.6825916,53.4449561 95.0131515,54.079996 96.4646715,54.079996 Z M96.4646715,52.3563161 C95.4969915,52.3563161 94.6502716,51.9480761 94.0152316,51.2676762 C93.3801916,50.6175162 92.9870716,49.6649562 92.9870716,48.6367963 C92.9870716,47.6086363 93.3801916,46.6560764 94.0152316,45.9907964 C94.6502716,45.3103964 95.4969915,44.9172765 96.4646715,44.9172765 C97.3718714,44.9172765 98.2185914,45.3103964 98.8536314,45.9907964 C99.4735513,46.6560764 99.8817913,47.6086363 99.8817913,48.6367963 C99.8817913,49.6649562 99.4735513,50.6175162 98.8536314,51.2676762 C98.2185914,51.9480761 97.3718714,52.3563161 96.4646715,52.3563161 Z M116.826271,54.079996 C119.744431,54.079996 122.10315,51.7061561 122.10315,48.7728763 C122.10315,45.8698364 119.744431,43.4959965 116.826271,43.4959965 L115.042111,43.4959965 L115.042111,43.4959965 C114.573391,43.4959965 114.210511,43.8588765 114.210511,44.3275965 L114.210511,53.2483961 C114.210511,53.6671037 114.51971,54.0213949 114.93594,54.0734236 L115.042111,54.079996 L115.042111,54.079996 L116.826271,54.079996 Z M116.826271,52.4016761 L115.888831,52.4016761 L115.888831,45.1743164 L116.826271,45.1743164 C118.822111,45.1743164 120.424831,46.7921564 120.424831,48.7728763 C120.424831,50.7838362 118.822111,52.3865561 116.826271,52.4016761 Z M140.93763,54.079996 C141.37611,54.079996 141.76923,53.7019961 141.76923,53.2483961 C141.76923,52.7796761 141.37611,52.4016761 140.93763,52.4016761 L136.84011,52.4016761 L136.84011,49.6195962 L140.36307,49.6195962 C140.81667,49.6195962 141.19467,49.2415963 141.19467,48.7728763 C141.19467,48.3343963 140.81667,47.9412763 140.36307,47.9412763 L136.84011,47.9412763 L136.84011,45.1743164 L140.93763,45.1743164 C141.37611,45.1743164 141.76923,44.7963165 141.76923,44.3275965 C141.76923,43.8588765 141.37611,43.4959965 140.93763,43.4959965 L135.99339,43.4959965 L135.99339,43.4959965 C135.52467,43.4959965 135.16179,43.8588765 135.16179,44.3275965 L135.16179,53.2483961 C135.16179,53.7019961 135.52467,54.079996 135.99339,54.079996 L136.00851,54.064876 L136.00851,54.064876 C136.00851,54.064876 136.00851,54.079996 136.03875,54.079996 L140.93763,54.079996 Z" id="CODE" fill="#373736" fill-rule="nonzero"></path>
                <path d="M83.1893882,31.5759979 C83.5421882,31.5759979 83.8130881,31.4499979 84.0020881,31.1979979 C84.1910881,30.9459979 84.2855881,30.7191979 84.2855881,30.5175979 C84.2855881,30.3411979 84.2540881,30.177398 84.1910881,30.026198 C84.1280881,29.874998 84.0587881,29.736398 83.9831881,29.610398 L83.9831881,29.610398 L78.2375884,20.2737984 C78.9935884,20.1477984 79.7054883,19.8894984 80.3732883,19.4988984 C81.0410883,19.1082985 81.6143883,18.6294985 82.0931882,18.0624985 C82.5719882,17.4954985 82.9499882,16.8591986 83.2271882,16.1535986 C83.5043882,15.4479986 83.6429882,14.6919987 83.6429882,13.8855987 C83.6429882,13.0035987 83.4728882,12.1719988 83.1326882,11.3907988 C82.7924882,10.6095989 82.3262882,9.92289889 81.7340882,9.33069892 C81.1418883,8.73849895 80.4551883,8.27229897 79.6739883,7.93209898 C78.8927884,7.591899 78.0485884,7.42179901 77.1413885,7.42179901 L77.1413885,7.42179901 L70.9421887,7.42179901 C70.6145888,7.42179901 70.3373888,7.541499 70.1105888,7.78089899 C69.8837888,8.02029898 69.7703888,8.30379897 69.7703888,8.63139895 L69.7703888,8.63139895 L69.7703888,30.4041979 C69.7703888,30.7317979 69.8837888,31.0089979 70.1105888,31.2357979 C70.3373888,31.4625979 70.6145888,31.5759979 70.9421887,31.5759979 C71.2697887,31.5759979 71.5469887,31.4625979 71.7737887,31.2357979 C72.0005887,31.0089979 72.1139887,30.7317979 72.1139887,30.4041979 L72.1139887,30.4041979 L72.1139887,20.3493984 L75.6293885,20.3493984 L82.0931882,30.8955979 C82.2191882,31.0971979 82.3766882,31.2609979 82.5656882,31.3869979 C82.7546882,31.5129979 82.9625882,31.5759979 83.1893882,31.5759979 Z M77.1413885,18.0057985 L72.1139887,18.0057985 L72.1139887,9.7653989 L77.1413885,9.7653989 C77.6957884,9.7653989 78.2249884,9.87249889 78.7289884,10.0866989 C79.2329884,10.3008989 79.6739883,10.5969989 80.0519883,10.9749988 C80.4299883,11.3529988 80.7260883,11.7939988 80.9402883,12.2979988 C81.1544883,12.8019988 81.2615883,13.3311987 81.2615883,13.8855987 C81.2615883,14.4651987 81.1544883,15.0006987 80.9402883,15.4920986 C80.7260883,15.9834986 80.4299883,16.4181986 80.0519883,16.7961986 C79.6739883,17.1741986 79.2329884,17.4702985 78.7289884,17.6844985 C78.2249884,17.8986985 77.6957884,18.0057985 77.1413885,18.0057985 L77.1413885,18.0057985 Z M107.748588,31.5759979 C109.411788,31.5759979 110.974188,31.2609979 112.435787,30.6309979 C113.897387,30.000998 115.176287,29.144198 116.272487,28.0605981 C117.368687,26.9769981 118.231787,25.7043982 118.861787,24.2427982 C119.491787,22.7811983 119.806787,21.2187984 119.806787,19.5555984 C119.806787,17.8923985 119.491787,16.3299986 118.861787,14.8683987 C118.231787,13.4067987 117.368687,12.1278988 116.272487,11.0316988 C115.176287,9.93549889 113.897387,9.07239893 112.435787,8.44239896 C110.974188,7.81239899 109.411788,7.497399 107.748588,7.497399 C106.085388,7.497399 104.522988,7.81239899 103.061388,8.44239896 C101.599788,9.07239893 100.327188,9.93549889 99.2435881,11.0316988 C98.1599881,12.1278988 97.3031881,13.4067987 96.6731882,14.8683987 C96.0431882,16.3299986 95.7281882,17.8923985 95.7281882,19.5555984 C95.7281882,21.2187984 96.0431882,22.7811983 96.6731882,24.2427982 C97.3031881,25.7043982 98.1599881,26.9769981 99.2435881,28.0605981 C100.327188,29.144198 101.599788,30.000998 103.061388,30.6309979 C104.522988,31.2609979 106.085388,31.5759979 107.748588,31.5759979 Z M107.748588,29.232398 C106.412988,29.232398 105.152988,28.980398 103.968588,28.476398 C102.784188,27.9723981 101.757288,27.2856981 100.887888,26.4162981 C100.018488,25.5468982 99.331788,24.5199982 98.8277881,23.3355983 C98.3237881,22.1511983 98.0717881,20.8911984 98.0717881,19.5555984 C98.0717881,18.2199985 98.3237881,16.9599986 98.8277881,15.7755986 C99.331788,14.5911987 100.018488,13.5579987 100.887888,12.6759988 C101.757288,11.7939988 102.784188,11.1009988 103.968588,10.5969989 C105.152988,10.0929989 106.412988,9.84099889 107.748588,9.84099889 C109.084188,9.84099889 110.344188,10.0929989 111.528587,10.5969989 C112.712987,11.1009988 113.746187,11.7939988 114.628187,12.6759988 C115.510187,13.5579987 116.203187,14.5911987 116.707187,15.7755986 C117.211187,16.9599986 117.463187,18.2199985 117.463187,19.5555984 C117.463187,20.8911984 117.211187,22.1511983 116.707187,23.3355983 C116.203187,24.5199982 115.510187,25.5468982 114.628187,26.4162981 C113.746187,27.2856981 112.712987,27.9723981 111.528587,28.476398 C110.344188,28.980398 109.084188,29.232398 107.748588,29.232398 Z M144.403787,31.5759979 C146.142586,31.5759979 147.767986,31.2420979 149.279986,30.5742979 C150.791986,29.906498 152.102386,28.967798 153.211186,27.7581981 C153.437986,27.5313981 153.551386,27.2163981 153.551386,26.8131981 C153.551386,26.5359981 153.469486,26.2839981 153.305686,26.0571981 C153.141886,25.8303982 152.896186,25.7169982 152.568586,25.7169982 C152.366986,25.7169982 152.171686,25.7547982 151.982686,25.8303982 C151.793686,25.9059981 151.636186,26.0193981 151.510186,26.1705981 C150.628186,27.1281981 149.576086,27.8778981 148.353886,28.419698 C147.131686,28.961498 145.814987,29.232398 144.403787,29.232398 C143.068187,29.232398 141.808187,28.980398 140.623787,28.476398 C139.439387,27.9723981 138.412487,27.2856981 137.543087,26.4162981 C136.673687,25.5468982 135.986987,24.5199982 135.482987,23.3355983 C134.978987,22.1511983 134.726987,20.8911984 134.726987,19.5555984 C134.726987,18.2199985 134.978987,16.9599986 135.482987,15.7755986 C135.986987,14.5911987 136.673687,13.5579987 137.543087,12.6759988 C138.412487,11.7939988 139.439387,11.1009988 140.623787,10.5969989 C141.808187,10.0929989 143.068187,9.84099889 144.403787,9.84099889 C145.789787,9.84099889 147.087586,10.1559989 148.297186,10.7859989 C149.506786,11.4159988 150.565186,12.1215988 151.472386,12.9027988 C151.699186,13.1547987 152.001586,13.2807987 152.379586,13.2807987 C152.681986,13.2807987 152.946586,13.1925987 153.173386,13.0161987 C153.400186,12.8397988 153.513586,12.5877988 153.513586,12.2601988 C153.513586,12.0585988 153.463186,11.8569988 153.362386,11.6553988 C153.261586,11.4537988 153.148186,11.2899988 153.022186,11.1639988 C151.913386,10.0299989 150.621886,9.13539893 149.147686,8.48019896 C147.673486,7.82499899 146.092187,7.497399 144.403787,7.497399 C142.740587,7.497399 141.178187,7.81239899 139.716587,8.44239896 C138.254987,9.07239893 136.982387,9.93549889 135.898787,11.0316988 C134.815187,12.1278988 133.958387,13.4067987 133.328387,14.8683987 C132.698387,16.3299986 132.383387,17.8923985 132.383387,19.5555984 C132.383387,21.2187984 132.698387,22.7811983 133.328387,24.2427982 C133.958387,25.7043982 134.815187,26.9769981 135.898787,28.0605981 C136.982387,29.144198 138.254987,30.000998 139.716587,30.6309979 C141.178187,31.2609979 142.740587,31.5759979 144.403787,31.5759979 Z M182.533185,31.5759979 C182.885985,31.5759979 183.169485,31.4499979 183.383685,31.1979979 C183.597885,30.9459979 183.704985,30.6813979 183.704985,30.4041979 C183.704985,30.202598 183.641985,30.000998 183.515985,29.799398 L183.515985,29.799398 L175.351186,16.8717986 L183.478185,9.42519891 C183.704985,9.19839892 183.818385,8.92119894 183.818385,8.59359895 C183.818385,8.26599897 183.704985,7.98879898 183.478185,7.76199899 C183.251385,7.535199 182.974185,7.42179901 182.646585,7.42179901 C182.318985,7.42179901 182.041785,7.535199 181.814985,7.76199899 L181.814985,7.76199899 L169.983586,18.6105985 L169.983586,8.59359895 C169.983586,8.26599897 169.870186,7.98879898 169.643386,7.76199899 C169.416586,7.535199 169.139386,7.42179901 168.811786,7.42179901 C168.484186,7.42179901 168.206986,7.535199 167.980186,7.76199899 C167.753386,7.98879898 167.639986,8.26599897 167.639986,8.59359895 L167.639986,8.59359895 L167.639986,30.4041979 C167.639986,30.7317979 167.753386,31.0089979 167.980186,31.2357979 C168.206986,31.4625979 168.484186,31.5759979 168.811786,31.5759979 C169.139386,31.5759979 169.416586,31.4625979 169.643386,31.2357979 C169.870186,31.0089979 169.983586,30.7317979 169.983586,30.4041979 L169.983586,30.4041979 L169.983586,21.7857983 L173.612386,18.4593985 L181.550385,31.0089979 C181.777185,31.3869979 182.104785,31.5759979 182.533185,31.5759979 Z M210.456585,31.5759979 C210.784185,31.5759979 211.061385,31.4625979 211.288185,31.2357979 C211.514985,31.0089979 211.628385,30.7317979 211.628385,30.4041979 C211.628385,30.076598 211.514985,29.799398 211.288185,29.572598 C211.061385,29.345798 210.784185,29.232398 210.456585,29.232398 L210.456585,29.232398 L200.137185,29.232398 L200.137185,20.5383984 L207.016785,20.5383984 C207.344385,20.5383984 207.621585,20.4249984 207.848385,20.1981984 C208.075185,19.9713984 208.188585,19.6941984 208.188585,19.3665985 C208.188585,19.0389985 208.075185,18.7617985 207.848385,18.5349985 C207.621585,18.3081985 207.344385,18.1947985 207.016785,18.1947985 L207.016785,18.1947985 L200.137185,18.1947985 L200.137185,9.7653989 L210.456585,9.7653989 C210.784185,9.7653989 211.061385,9.6519989 211.288185,9.42519891 C211.514985,9.19839892 211.628385,8.92119894 211.628385,8.59359895 C211.628385,8.26599897 211.514985,7.98879898 211.288185,7.76199899 C211.061385,7.535199 210.784185,7.42179901 210.456585,7.42179901 L210.456585,7.42179901 L198.965385,7.42179901 C198.637785,7.42179901 198.360585,7.535199 198.133785,7.76199899 C197.906985,7.98879898 197.793585,8.26599897 197.793585,8.59359895 L197.793585,8.59359895 L197.793585,30.4041979 C197.793585,30.7317979 197.906985,31.0089979 198.133785,31.2357979 C198.360585,31.4625979 198.637785,31.5759979 198.965385,31.5759979 L198.965385,31.5759979 L210.456585,31.5759979 Z M232.596584,31.5759979 C232.924184,31.5759979 233.201384,31.4625979 233.428184,31.2357979 C233.654984,31.0089979 233.768384,30.7317979 233.768384,30.4041979 L233.768384,30.4041979 L233.768384,9.7653989 L239.135984,9.7653989 C239.463584,9.7653989 239.740784,9.6519989 239.967584,9.42519891 C240.194384,9.19839892 240.307784,8.92119894 240.307784,8.59359895 C240.307784,8.26599897 240.194384,7.98879898 239.967584,7.76199899 C239.740784,7.535199 239.463584,7.42179901 239.135984,7.42179901 L239.135984,7.42179901 L226.019385,7.42179901 C225.691785,7.42179901 225.414585,7.535199 225.187785,7.76199899 C224.960985,7.98879898 224.847585,8.26599897 224.847585,8.59359895 C224.847585,8.92119894 224.960985,9.19839892 225.187785,9.42519891 C225.414585,9.6519989 225.691785,9.7653989 226.019385,9.7653989 L226.019385,9.7653989 L231.424784,9.7653989 L231.424784,30.4041979 C231.424784,30.7317979 231.538184,31.0089979 231.764984,31.2357979 C231.991784,31.4625979 232.268984,31.5759979 232.596584,31.5759979 Z" id="ROCKET" fill="#373736" fill-rule="nonzero"></path>
                <path d="M153.028193,47.8750006 L239.374051,47.9650006 C239.970518,47.9656223 240.452925,48.4496585 240.452925,49.0461257 C240.452925,49.6028284 240.030656,50.0607131 239.489484,50.1187847 L239.371799,50.1249994 L153.025942,50.0349994 C152.429475,50.0343777 151.947068,49.5503415 151.947068,48.9538743 C151.947068,48.3971716 152.369337,47.9392869 152.910509,47.8812153 L153.028193,47.8750006 Z" id="Line" fill="#67BBFF" fill-rule="nonzero"></path>
            </g>
        </g>
    </g>
</svg>